<?xml version="1.0" encoding="utf-8"?>
<!-- Generator: Adobe Illustrator 28.0.0, SVG Export Plug-In . SVG Version: 6.00 Build 0)  -->
<svg version="1.1"
	 id="Layer_1" xmlns:svg="http://www.w3.org/2000/svg" xmlns:sodipodi="http://sodipodi.sourceforge.net/DTD/sodipodi-0.dtd" xmlns:inkscape="http://www.inkscape.org/namespaces/inkscape"
	 xmlns="http://www.w3.org/2000/svg" xmlns:xlink="http://www.w3.org/1999/xlink" x="0px" y="0px" viewBox="0 0 2521 2911"
	 style="enable-background:new 0 0 2521 2911;" xml:space="preserve">
<style type="text/css">
	.st0{fill:#FFFFFF;}
	.st1{fill:#181E50;}
</style>
<sodipodi:namedview  bordercolor="#000000" borderopacity="0.25" id="namedview670" inkscape:current-layer="Layer_1" inkscape:cx="1261.2694" inkscape:cy="1455.5" inkscape:deskcolor="#d1d1d1" inkscape:pagecheckerboard="0" inkscape:pageopacity="0.0" inkscape:showpageshadow="2" inkscape:window-height="830" inkscape:window-maximized="1" inkscape:window-width="1440" inkscape:window-x="-6" inkscape:window-y="-6" inkscape:zoom="0.20336654" pagecolor="#ffffff">
	</sodipodi:namedview>
<polygon class="st0" points="61.1,2163.1 61.1,747.5 237.7,642.7 1255.5,39.9 1255.5,39.9 2270.2,640.9 2449.9,747.5 2449.9,2163.1 
	1255.5,2870.7 "/>
<path id="path1-1" class="st1" d="M1223,2908.7c-21.6-3.3-43.5-9.1-56.4-14.9c-2.5-1.1-9.8-4.3-16.3-7.1
	c-10.4-4.5-26.7-13.8-87.4-49.9c-9-5.3-26.4-15.6-38.8-22.7c-12.4-7.2-25.4-15-28.9-17.4s-11.1-7-16.8-10.1
	c-5.7-3.2-19.4-11.2-30.4-17.9c-11-6.7-30-18.1-42.3-25.3c-12.2-7.3-41.9-25-66-39.5c-24.1-14.5-52.7-31.5-63.8-37.9
	s-24.7-14.5-30.4-18s-17.7-10.7-26.7-16s-34.7-20.6-57.1-34c-66.1-39.5-112.7-67.2-123.8-73.6c-5.7-3.3-14.4-8.5-19.3-11.6
	c-4.9-3.1-11.6-7.1-14.8-8.9c-11-6.1-64.1-37.6-136.4-81c-1.6-1-6.5-3.9-10.8-6.6s-8.2-4.8-8.6-4.8c-0.4,0-8.9-4.9-18.9-10.9
	c-17.5-10.6-83.7-50.1-100.4-59.9c-4.5-2.6-17.8-10.7-29.7-17.9c-11.8-7.2-25.8-15.6-31.1-18.5c-57.6-32.4-85.5-53.7-109.9-84.3
	c-8.5-10.6-22.7-32.6-29.9-46.2c-10.3-19.5-22.7-58.9-26.2-83c-1.2-8.2-1.7-185.1-1.8-638.3L0,825.3l3.3-17.2
	c9.5-49.6,28.3-90.1,58.6-126.4c21.3-25.5,40.6-40.9,82.9-66.2c39.7-23.7,62.7-37.4,78.8-46.8c8.2-4.8,21.2-12.5,28.9-17.1
	c27.5-16.5,57.2-34,63-37.1c3.3-1.8,8.3-4.6,11.1-6.4c7.4-4.5,22.9-13.6,73.4-42.9c24.5-14.2,46.8-27.3,49.7-29.2
	s11.2-6.8,18.5-11.1c24.3-14.2,39.8-23.4,57.1-33.8c9.4-5.6,20.4-12,24.5-14.1c4.1-2.2,15.8-8.9,25.9-15.1
	c36.7-22.1,115-68.5,126-74.6c3.7-2,22.4-13.1,41.5-24.5c19.2-11.5,47.5-28.2,63-37.2c15.5-9,37.5-22,48.9-28.9s24.1-14.4,28.2-16.8
	s13.1-7.7,20-11.8s20.9-12.2,31.1-18c19.8-11.2,63.2-36.8,77.8-45.9c4.9-3.1,14.6-8.8,21.5-12.8c11.1-6.4,27-15.8,68.9-40.9
	c22.8-13.7,45-25.6,55.8-30.1c15-6.2,42.3-14.1,58.3-17c18.5-3.3,54.4-4.5,73-2.3c33.8,4,76.4,17.9,101.3,33.1
	c2.9,1.8,16.5,9.9,30.4,18.1c13.9,8.2,30.9,18.4,37.8,22.7c6.9,4.3,20.9,12.6,31.1,18.6s26.5,15.6,36.3,21.3
	c9.8,5.7,26.1,15.3,36.3,21.2c10.2,5.9,28.5,16.7,40.8,23.9c12.2,7.2,29.6,17.5,38.6,22.8c9,5.3,18.3,10.8,20.8,12.2
	c2.4,1.4,8.5,5,13.3,7.8c23.3,13.5,39,22.8,43.7,25.8c2.9,1.8,8.2,5,11.9,7.1c10.6,6,23.2,13.4,41.5,24.3
	c9.4,5.6,29.1,17.2,43.7,25.8c14.7,8.6,36.7,21.7,48.9,29.1c12.2,7.4,35.6,21.1,51.9,30.5c16.3,9.4,33.7,19.6,38.6,22.7
	c4.9,3.1,15.6,9.5,23.7,14.2c8.2,4.8,18.5,10.8,23,13.5s12.5,7.3,17.8,10.3s13.6,7.9,18.5,10.8c4.9,2.9,11.9,7,15.6,9.1
	c3.7,2.1,10,5.9,14.1,8.5c4.1,2.6,13.1,7.9,20,11.7s16.9,9.7,22.1,13c5.2,3.3,14.9,9,21.5,12.7s16,9.2,20.9,12.1
	c10.5,6.2,46.7,27.3,54.1,31.5c2.9,1.6,10.7,6.4,17.5,10.6s12.6,7.7,13,7.7c0.3,0,3.8,1.9,7.7,4.2c3.9,2.3,18.1,10.8,31.5,18.8
	c13.5,8,33.1,19.8,43.7,26.2c10.6,6.3,29.6,17.4,42.3,24.7c46.1,26.3,68.3,43.3,92.3,70.4c15.8,17.9,24.5,30.9,36.4,54.3
	c11.3,22.3,18.7,43.1,22.6,63.2c6.3,33.1,6-8.1,5.5,664.4l-0.5,631.6l-3.2,13.8c-4.2,18.4-7.2,28.9-11.9,41.4
	c-16.6,45-47.5,87.4-83.5,114.7c-18.9,14.3-25.6,18.7-58.2,37.3c-15.3,8.7-34.3,20-42.3,25c-8,5-16.7,10.4-19.5,12
	c-2.7,1.6-12.4,7.3-21.5,12.6c-17.1,10.1-20.3,12.1-51.4,30.3c-10.2,6-20.9,12.4-23.7,14.2c-2.9,1.8-9.2,5.7-14.1,8.5
	c-4.9,2.9-14.9,8.8-22.2,13.2s-14,8.3-14.9,8.7c-0.9,0.4-11.5,6.7-23.8,14s-35.2,21-51.1,30.4s-44.3,26.3-63,37.6
	s-43.1,25.6-54.1,32.1s-29.7,17.5-41.5,24.6c-24.7,14.9-53.2,31.8-60.8,36.1c-2.9,1.6-19.2,11.3-36.3,21.6
	c-42.6,25.5-100.5,60.1-119.4,71.2c-29.6,17.6-73.6,43.7-117.1,69.7c-24.1,14.4-46.1,27.5-48.9,29.1s-8.5,5-12.6,7.5
	c-28.8,17.8-122.6,73.6-133.4,79.5c-17.2,9.2-42.6,20.1-57.8,24.7C1305.6,2910.4,1254.9,2913.6,1223,2908.7L1223,2908.7z
	 M1306.1,2818.6c19.9-4.2,38.4-10.7,56.2-19.7c15.8-7.9,18.3-9.4,77.2-44.8c32.1-19.3,76.5-45.8,161.6-96.7
	c6.5-3.9,23.5-14,37.8-22.4c14.3-8.4,34-20.1,43.7-26c9.8-5.9,27.8-16.7,40-23.9c12.2-7.2,28.6-16.9,36.3-21.6
	c7.7-4.7,27.4-16.4,43.7-26.1c38.8-23,115.3-68.7,123.8-73.9c3.7-2.3,15-9,25.2-14.9s39.9-23.6,66-39.2
	c75.6-45.1,102.1-60.9,129.7-77.2c14.3-8.4,30-17.8,34.8-20.8c4.9-3,25.6-15.5,46-27.6c20.4-12.2,45.1-26.9,54.9-32.8
	c9.8-5.9,20.8-12.3,24.5-14.1c3.7-1.9,11-6.2,16.3-9.7c5.3-3.5,16.4-10.7,24.6-16c30.2-19.7,56-49.9,72.9-85.3
	c6.1-12.9,14.5-40.2,17.4-57.1c3.3-19,3.3-1202.8,0-1225.6c-6.5-45.1-22.9-82-50-113c-18-20.5-34.3-33.8-64.9-52.9
	c-2.9-1.8-10.6-6.1-17.1-9.5c-6.5-3.4-18.8-10.4-27.4-15.5c-8.6-5.1-31.4-18.7-50.6-30.2c-19.2-11.5-39.7-23.4-45.5-26.4
	c-5.8-3-11.4-6.5-12.3-7.6s-2.5-2.2-3.3-2.2c-0.8,0-7.1-3.4-13.8-7.5c-6.8-4.1-12.6-7.5-12.9-7.5s-10.2-5.8-21.9-12.9
	c-11.8-7.1-30.6-18.1-41.8-24.5s-29.2-17-40-23.5c-25.6-15.4-59.7-35.5-74.1-43.7c-6.3-3.6-17.7-10.3-25.2-14.8
	s-18.6-11.1-24.5-14.5c-5.9-3.4-15.6-9-21.5-12.4c-5.9-3.4-15.8-9.4-21.9-13.2c-6.1-3.9-14.8-9.1-19.3-11.5
	c-10.8-6-56.4-32.6-82.3-48c-11.4-6.8-29.6-17.5-40.5-23.8c-10.8-6.3-23.2-13.5-27.4-16c-31.6-18.8-85.1-50.2-123.4-72.5
	c-10.6-6.2-32.3-18.9-48.2-28.3c-15.9-9.4-35.3-20.7-43-25.1c-7.7-4.4-18.5-10.9-24-14.4c-5.4-3.5-10.4-6.4-10.9-6.4
	c-0.6,0-9.8-5.3-20.5-11.8c-10.7-6.5-22.7-13.6-26.7-15.8c-4-2.2-10.3-5.9-14.1-8.2c-31.7-19.5-42.9-24.9-67.7-32.8
	c-40.5-12.9-90-11.7-132.7,3.3c-14.4,5.1-39,17.4-54.1,27.1c-5.7,3.7-15.7,9.7-22.2,13.5c-16.4,9.4-21.5,12.4-51.2,29.9
	c-14.3,8.4-29.3,17.2-33.4,19.4c-4.1,2.2-9.7,5.6-12.6,7.5c-2.9,1.9-11.9,7.3-20,12c-8.2,4.7-22.3,13-31.4,18.4s-28,16.5-42,24.7
	S893.2,270,888.2,273c-5,3.1-10.8,6.4-12.8,7.4c-3.5,1.8-14,7.9-78.6,46.3c-15.9,9.4-34.6,20.4-41.5,24.3s-17.9,10.3-24.5,14.2
	c-18.9,11.3-36.6,21.8-42.3,25c-22.9,13-28.7,16.4-37.8,21.9c-5.7,3.5-15.4,9.2-21.5,12.7c-6.1,3.5-15.1,8.9-20,11.9
	c-21.2,13.1-90.9,53.7-92.2,53.7c-0.3,0-3.9,2.2-7.9,4.8c-9.1,6.1-13.6,8.7-47.5,28.6c-15.1,8.8-33.4,19.6-40.8,23.9
	c-7.3,4.3-15.7,9.2-18.5,10.8s-17.5,10.2-32.6,19c-36.3,21.3-56.3,33-86.7,50.7c-13.9,8-28.5,16.8-32.6,19.4
	c-4.1,2.6-16.1,9.6-26.7,15.6c-26.7,15-43.6,25.4-54.4,33.5c-52.8,39.4-81.3,90.8-87.1,157.6c-1,11.3-1.5,218.6-1.5,604
	c0,612-0.1,597.5,5.7,625c4.7,22.3,20.6,56.7,35.4,76.8c22.5,30.5,44.1,47.7,104.7,83.4c15.3,9,43.3,25.7,62.2,37.1
	s40.4,24.2,47.7,28.5c7.3,4.3,24,14.1,37.1,21.9c13,7.8,26.7,15.8,30.4,17.8c3.7,2,7,4,7.4,4.5c0.4,0.5,3.1,2.1,5.9,3.6
	c2.9,1.5,6.9,3.8,8.9,5.2c3.9,2.7,18.1,11.2,26.7,16c4.5,2.5,19.8,11.6,51.9,30.9c56.4,33.8,138,82.5,152,90.7
	c9.8,5.8,20.1,11.9,23,13.8c2.9,1.8,11.9,7.2,20,12c23.2,13.5,45.1,26.6,75.6,45.2c15.5,9.4,30.5,18.4,33.4,20
	c2.9,1.6,12.2,7.2,20.8,12.4c8.6,5.2,29.6,17.6,46.7,27.6s35.1,20.7,40,23.8c4.9,3.1,17.9,10.8,28.9,17.2c11,6.4,38,22.5,60.1,35.8
	c22,13.3,62.7,37.8,90.4,54.4c69.5,41.8,87.8,50.2,124.6,57.3c18.2,3.5,20.5,3.6,46.7,3.1
	C1284.2,2821.9,1295.5,2820.8,1306.1,2818.6L1306.1,2818.6z M1224.5,2758.4c-16.7-3.6-35.3-10.9-49.7-19.5
	c-4.5-2.7-11.2-6.6-14.8-8.6c-3.7-2-21.7-12.8-40-23.9c-30.6-18.5-66.3-39.8-132.7-79.1c-13.9-8.2-32.9-19.6-42.3-25.3
	c-34.2-20.8-187.6-112.2-212.8-126.7c-9.8-5.7-21.1-12.4-25.2-14.9c-4.1-2.5-11.1-6.7-15.7-9.2c-4.6-2.6-23.2-13.6-41.5-24.6
	c-18.3-11-47.9-28.7-65.8-39.4c-17.9-10.7-39-23.3-46.7-27.9c-35.4-21.2-95.4-57-107.8-64.3c-34.5-20.3-50.1-29.5-68.7-40.8
	c-33.2-20.2-91.7-54.9-107.5-63.8c-34.2-19.3-50.2-30.4-66-45.8c-24.6-24-41.4-59.5-45.9-96.9c-1.1-8.6-1.5-199.6-1.4-596.6
	c0.1-616.2-0.2-591.2,6.4-619.1c6.3-26.5,23.4-56,43.4-74.5c17.5-16.2,21.2-18.7,90.2-58.8c8.2-4.8,18.5-10.8,23-13.4
	c37.1-21.7,46.8-27.4,57.5-33.7c28.3-16.8,45.3-26.8,93.8-55c15.1-8.8,39.1-22.8,53.4-31.3s30.3-17.8,35.6-20.9
	c5.3-3.1,19.4-11.4,31.4-18.5c12-7.1,22.2-12.9,22.6-12.9s5.3-2.9,10.8-6.5c10-6.5,32.2-19.7,44.8-26.7c12-6.6,24.3-13.9,30.4-17.8
	c3.3-2.1,17.3-10.4,31.1-18.4s34.2-20,45.2-26.5s24.7-14.6,30.4-17.9s12-7.1,14.1-8.4c4.4-2.8,31.2-18.5,80.2-47.1
	c19.7-11.5,38.2-22.4,41.2-24.2c2.9-1.8,7-4.2,9.1-5.3s11-6.4,20-11.8c9-5.3,24-14.1,33.4-19.4c9.4-5.3,20.4-11.7,24.5-14.2
	c23.3-14.2,58.3-34.7,59.1-34.7c0.5,0,5.4-2.9,10.9-6.4c5.5-3.5,18.6-11.4,29-17.5c10.5-6.1,20.1-11.8,21.5-12.6
	c56.2-33.6,71-40.7,95-45.9c27.9-6.1,65.2-3.1,90.4,7.3c11.8,4.8,13.5,5.8,72.8,40.6c11.8,6.9,25.8,15.1,31.1,18.2
	c8.7,5,65.3,38.1,89,52.2c5.3,3.1,23.6,13.9,40.8,24s37.5,22.1,45.2,26.8c7.7,4.7,16.4,9.7,19.3,11.2c4.7,2.4,27.8,15.9,60.8,35.5
	c6.9,4.1,15.6,9.2,19.3,11.3s13,7.5,20.8,12.2s21.4,12.7,30.4,17.9c9,5.2,25.3,14.9,36.3,21.5s20.7,12.3,21.5,12.6s11.2,6.4,23,13.6
	s34.2,20.2,49.7,29.1c15.5,8.9,31.6,18.4,35.9,21.1c4.2,2.7,8.1,5,8.5,5c0.5,0,6.7,3.6,13.8,8c7.1,4.4,16.6,10,21.1,12.5
	c4.5,2.5,10.8,6.1,14.1,7.9c3.3,1.8,7.3,4.1,8.9,5c1.6,0.9,4.6,2.7,6.7,4c2,1.3,10.4,6.2,18.5,11c8.2,4.7,17.6,10.5,21,12.9
	c3.4,2.4,6.5,4.3,7,4.3s8.3,4.4,17.4,9.7c9.1,5.3,16.9,9.7,17.4,9.7s1.9,0.9,3.1,2c1.3,1.1,6,4,10.5,6.5c4.5,2.5,10.5,5.8,13.3,7.5
	c2.9,1.7,9.2,5.3,14.1,8.2c4.9,2.8,19.2,11.4,31.9,19c12.6,7.6,26.7,15.8,31.1,18.3c4.5,2.4,9.2,5.4,10.5,6.5
	c1.3,1.1,2.9,2.1,3.5,2.1c0.6,0,11.8,6.4,24.8,14.2s24,14.2,24.5,14.2s4.6,2.3,9.2,5.1c27.7,16.8,33.2,20,49.9,29.2
	c46.9,25.9,76.8,69.8,84.5,123.9c3.3,23.5,3.4,1186.2,0.1,1205.4c-4,22.8-15.3,50.7-26.9,66.2c-20.2,27-31.9,35.6-110.7,81.7
	c-11.6,6.8-28.7,17.1-38.1,22.8c-15.7,9.7-33.5,20.3-112.7,67.2c-15.9,9.4-43.9,26.2-62.3,37.3c-18.3,11.1-37,22.3-41.5,24.9
	s-21.5,12.7-37.8,22.4c-16.3,9.7-35.7,21.2-43,25.4c-13.8,8-50,29.8-57.8,34.8c-2.4,1.6-20.8,12.4-40.8,24.1s-41.3,24.3-47.4,28
	s-12.5,7.5-14.1,8.4s-8,4.7-14.1,8.5c-15.9,9.8-57,34.2-67.5,40.1c-4.9,2.7-15.2,8.8-23,13.5c-27.2,16.4-98.9,59.2-125.3,74.8
	c-14.7,8.7-36.7,21.8-48.9,29.2c-12.2,7.4-36.3,21.8-53.4,32c-17.1,10.2-39.1,23.5-48.8,29.5c-23.5,14.4-42.7,23.2-60.8,27.9
	c-12.2,3.1-19.3,3.9-39.3,4.4C1243.9,2761.8,1238.8,2761.4,1224.5,2758.4L1224.5,2758.4z M1115.9,2160.5c2.9-7.6,7.2-19.8,9.7-27.2
	c2.5-7.4,10.3-29.2,17.4-48.5c27.7-75.2,34.5-93.9,35.4-97.6l1-3.8h-12.5c-10.6,0-12.6,0.4-13.2,2.6c-1.2,4.1-28.6,83.5-32.3,93.9
	l-3.4,9.3l-16.9-45.1c-9.3-24.8-18.1-48.4-19.5-52.5l-2.6-7.5l-12.1-0.4l-12.1-0.4l1,4.2c1,4.2,1.6,5.8,13.5,36.2
	c3.7,9.4,9.6,25,13.2,34.6s8.1,21,10.1,25.4c10.7,23.8,13.1,31.1,12.1,36.7c-0.8,4.4-12.8,38.9-17.8,51.4c-1,2.4,0.1,2.6,11.5,2.6
	h12.6L1115.9,2160.5z M2020.5,2169.9c14.5-5.6,22.9-15.2,25.4-29.1c0.6-3.3,1-39.9,1-81.3l-0.1-75.3l-11.2-0.4l-11.2-0.4l0,5.7
	c0,3.1-0.4,7.1-0.9,8.9c-0.8,3-1.4,2.7-8.5-4.6c-25.3-26-67.3-10.3-75.1,28.1c-1,4.9-1.8,18.7-1.8,30.8c0,25.6,2.5,35.9,11.8,48.2
	c6.9,9.1,15.5,13.7,30,15.9c9.6,1.5,12.4,1.4,19.9-0.8c8.6-2.5,13.1-6,20.9-16.5l3-4l-0.5,20.6c-0.3,11.5-1.3,22.2-2.2,24.3
	c-4.5,9.5-17.5,13.5-43.9,13.5h-17.5l-0.9,4.7c-1.3,6.3-1.2,14,0.2,15.4c0.6,0.6,12.8,0.8,27.1,0.5
	C2008.2,2173.3,2013,2172.8,2020.5,2169.9L2020.5,2169.9z M1979.2,2094.4c-7.2-3.7-10.9-8.1-13.2-15.4c-5.6-17.3-4.1-54.7,2.6-65.4
	c10-15.9,38.3-15.8,50.2,0.2c3.3,4.4,3.5,6.1,3.9,30.7c0.3,16.4-0.1,28.2-1.2,31.7c-2.1,7.1-9.6,15.8-15.9,18.5
	C1999.1,2097.4,1984.7,2097.3,1979.2,2094.4L1979.2,2094.4z M704.2,2124.9c16.5-6.2,27.7-22.7,30.3-44.9c0.8-6.8,1.3-31.1,1.1-54
	l-0.4-41.8l-7.4-0.5c-4.1-0.3-9.5-0.1-12.2,0.4l-4.8,0.9l-0.4,52.8l-0.4,52.8l-4.6,5.7c-6.9,8.7-12.9,11.3-24.4,10.5
	c-12-0.8-17.5-3.5-23.1-11.6l-4.4-6.3l-0.7-52.3l-0.7-52.3h-11.1h-11.1l-1.3,6c-0.7,3.3-1,25.8-0.6,50c0.6,35.4,1.2,45.6,3.2,52.1
	c4.4,14.2,12.3,24.3,23.7,30.3c9,4.7,12.2,5.4,27,5.5C692.7,2128,697.7,2127.3,704.2,2124.9L704.2,2124.9z M540.2,2073.2l0-53.3
	l25.4,0.5c15.3,0.3,25.8-0.1,26.3-1c0.5-0.8,0.7-5.5,0.4-10.5l-0.5-9.1H566h-25.8v-14.3c0-10.5,0.6-15.4,2.4-18.4
	c4.3-7.4,7.2-8.3,29.5-9.1l20.8-0.7v-8.9v-8.9l-11.9-1.2c-28.4-2.9-47.5,1.7-56.9,13.6c-5.9,7.5-7.6,14.8-7.6,32.7l0,15.2l-18.2,0.4
	l-18.2,0.4l-0.4,9.1c-0.5,11-0.7,11,21.5,11l15.1,0l-0.5,48.1c-0.3,26.5-0.1,50.3,0.3,52.9l0.7,4.8h11.7h11.7L540.2,2073.2z
	 M1285.5,2124.5c23.6-6.3,33.2-17.7,33.3-39.7c0.1-16.5-9.1-30-24.7-36.1c-7-2.7-17.2-4.9-35.8-7.7c-15-2.2-19.8-4.8-23.6-12.6
	c-4.9-10.1,1.5-22.1,13.6-25.4c3.2-0.9,10.4-1.6,16.1-1.6c13.4,0,21.2,3.6,26,12.1c3.4,6.1,3.5,6.1,10.1,5.2
	c3.7-0.5,8.3-0.9,10.2-0.9c6.8,0,3.8-12.5-5.2-21.9c-9-9.4-25.9-15.3-44-15.3c-31-0.1-51,15.5-51.5,40.2
	c-0.3,13.3,2.8,21.5,10.9,28.8c8.1,7.3,18.1,10.7,38.4,13.1c7,0.8,15.8,2.5,19.7,3.8c12.4,4,18.6,16.5,13.9,27.9
	c-7.5,18-57,16.4-61-2l-1-4.5h-11.7h-11.7v4.5c0,14,13.8,27.3,33.4,32.2C1250.9,2127,1276.2,2127,1285.5,2124.5L1285.5,2124.5z
	 M879.5,2115l-0.4-10.1l-38.2-0.4c-21-0.2-38.2-0.9-38.2-1.6c0-0.7,2.2-3.8,4.9-7.1c2.7-3.2,11.8-14.9,20.3-26
	c8.5-11.1,15.8-20.5,16.3-20.9c2.4-2.1,26.8-32.9,30.1-38c4.8-7.4,6.7-23.2,3.2-26.2c-1.7-1.4-13.3-1.6-50.6-0.8
	c-26.6,0.6-49,1.3-49.6,1.8c-1.8,1.1-1,18.5,0.9,18.7c3,0.4,29.8,1,50.9,1.1c11.6,0.1,21.1,0.7,21.1,1.4c0,0.7-3.9,5.9-8.6,11.6
	c-11,13.1-49.3,61.1-58.5,73.2l-7,9.2v12v12h52h52L879.5,2115z M1024.8,2119.2c0.3-2.8,0.1-7.3-0.4-10.1l-0.9-4.9H985
	c-21.2,0-38.5-0.4-38.5-1c0-1.3,14.6-20.4,33.4-43.8c18.5-22.9,38.2-48.8,40.5-53.2c0.9-1.8,1.7-7.3,1.7-12.1c0-6.9-0.5-9.1-2.5-9.8
	c-3.1-1.2-93.1-0.8-95.1,0.5c-0.8,0.5-1.7,5.3-2,10.6l-0.5,9.7h34.3c18.9,0,34.8,0.5,35.4,1.1c1.4,1.4-2.5,7.3-12.6,19.1
	c-4.6,5.3-10.7,12.7-13.5,16.4s-14.3,18.3-25.5,32.4l-20.4,25.7v12.7v12.7l52.3-0.4l52.3-0.4L1024.8,2119.2z M1458.8,2114.6v-9.6
	l-18.5-0.8c-20.8-0.9-26.4-2.8-31.2-10.8c-2.7-4.4-2.9-7.8-2.9-46.9v-42.1h26.7h26.7v-10.4v-10.4h-26.7h-26.7v-17.1v-17.1l-4.9-0.9
	c-2.7-0.5-7.8-0.7-11.5-0.4l-6.6,0.5l-0.4,17.5l-0.4,17.5h-18.5h-18.5v10.4v10.4h18.5h18.5v44.5c0,37.1,0.4,45.7,2.4,51.8
	c3,9.1,8.2,15.1,16.7,18.9c8.6,3.9,16.4,4.9,38.6,4.8l18.7-0.1L1458.8,2114.6z M1530.7,2072.1c0.5-35.7,1.3-53.1,2.5-55.2
	c9.3-16,33.8-20.9,46.2-9.2c5.4,5.1,7.8,11,8.9,21.7l1,9.9l11.7,0.4l11.7,0.4l-0.8-13.1c-1.5-26.1-16.5-43.9-38.8-46.2
	c-17.5-1.8-28.5,2.8-38.3,16.2c-3.1,4.2-5.6,7-5.7,6.2c-0.6-5.8-0.8-8.1-1.1-13.7l-0.3-6.4l-10.7,0.4l-10.7,0.4v69.4
	c0,38.1,0.2,69.9,0.5,70.5c0.3,0.6,5.6,1,11.9,0.7l11.4-0.4L1530.7,2072.1z M1760.5,2114.6v-10.4h-22.4h-22.4l0.6-57.3
	c0.4-31.5,0.1-58.7-0.5-60.4c-1.1-3.1-2-3.1-33.1-3.1h-31.9v10.4v10.4l21.1,0.4l21.1,0.4l0.2,46.7c0.1,25.7-0.1,48-0.5,49.6
	c-0.7,2.7-2.2,2.9-22.8,2.9h-22.1v10.4v10.4h56.3h56.3V2114.6z M1817,2072.9c0.9-56.5,1-56.8,10.3-64.7c6.1-5.1,15.2-7.5,24.4-6.2
	c10.1,1.4,16.1,5.5,20.3,13.9c3.4,6.9,3.5,8.5,4.2,57.8l0.8,50.7l8.1,0.5c4.4,0.3,9.7,0.1,11.6-0.4l3.5-0.9l-0.5-53.3
	c-0.4-48.4-0.7-53.9-3.3-60c-4.7-11.2-12-20-20.4-24.7c-7.1-3.9-9.2-4.4-21.2-4.4c-18.1,0-25.8,4.3-36.6,20.2
	c-2.5,3.6-2.5,3.5-2.6-7.2l-0.1-10.9l-11.5,0.4l-11.5,0.4l-0.1,67.9c-0.1,37.3,0.5,69.1,1.2,70.5c1.1,2.3,2.9,2.6,12,2.2l10.7-0.4
	L1817,2072.9z M1714.1,1956.1c4.9-4.9,6.1-14.2,2.5-20.3c-8.8-15-31.7-9.5-31.7,7.7c0,3.5,1.1,7.9,2.4,9.8
	C1693,1961.5,1707.3,1963,1714.1,1956.1L1714.1,1956.1z M1297.9,1788c23.2-6.7,37.3-17.7,46.7-36.4c9.3-18.5,9.4-20.1,9.2-118.7
	l-0.2-88.7l-15.9-0.4c-8.8-0.2-16.1-0.2-16.3,0c-0.2,0.2-0.7,41.7-1.1,92.1c-0.8,89.7-0.9,91.9-4,98.6c-4.4,9.5-15.4,19.9-25.5,24
	c-7.4,3-10.9,3.4-30.6,3.4h-22.2l-9.6-5.2c-6.5-3.5-11.4-7.6-15.2-12.7c-10.9-14.5-10.6-11.8-11.2-111.5l-0.5-89.1h-17.1h-17.1
	l0.6,89.9c0.5,78.2,0.9,91,3.1,98.2c8.3,28.1,21.2,43.4,44.7,52.7c16.8,6.7,27.3,8.3,50.4,7.6
	C1281.5,1791.4,1289.6,1790.4,1297.9,1788L1297.9,1788z M496.1,1736.2l0.4-54.8l16.3-0.3c9-0.1,38.2-0.3,64.9-0.4l48.6-0.1v-14.2
	v-14.2l-64.9-0.4l-64.9-0.4l0.2-38l0.2-38l73.2-0.8c40.3-0.4,73.4-0.9,73.6-1.1c0.2-0.2,0.2-6.5,0-14.1l-0.4-13.8h-89.7h-89.7
	l-0.4,122.7l-0.4,122.7h16.3h16.3L496.1,1736.2z M1001.4,1775.5c0-13.3-0.2-14-3.3-14.7c-1.8-0.4-37.2-0.5-78.7-0.3
	c-41.4,0.2-75.1-0.1-74.9-0.8c0.2-0.7,10.8-13.8,23.4-29.2c21.8-26.6,31.6-38.5,91.4-111c13.9-16.8,28.2-34.5,31.8-39.4l6.6-8.8
	v-12.8v-12.8l-94.6-0.4l-94.6-0.4l0.4,13.8l0.4,13.8l73.8,0.4l73.8,0.4l-18.9,23.5c-10.4,12.9-24.6,30.2-31.6,38.5s-23,28-35.6,43.9
	c-12.6,15.9-29.3,36.6-37.1,46.1c-30,36.7-28.6,34-28.3,54.9l0.2,9.3h97.9h97.9V1775.5z M1720.5,1773.8v-14.2h-80.1
	c-44,0-80.1-0.5-80.1-1.1c0-1.3,23-30.1,43.2-54.2c34.2-40.7,100.4-121,107-129.8c3.8-5.1,4-6.2,3.6-18.6l-0.4-13.2l-93.8-0.4
	l-93.8-0.4l-0.9,3.5c-0.5,1.9-0.5,5.4-0.2,7.8c0.4,2.4,0.8,7.2,0.8,10.7l0.1,6.3h73.4c40.4,0,73.4,0.4,73.4,0.9
	c0,0.5-8.8,11.7-19.6,24.9c-10.8,13.2-30.9,37.8-44.6,54.7c-13.7,16.9-31.7,39-40,49.2c-8.3,10.2-18.2,22.3-22,26.8
	c-15.5,18.5-23.8,30.1-24.7,34.4c-0.5,2.5-0.7,9.5-0.4,15.7l0.5,11.2h99.2h99.2L1720.5,1773.8z M1999.2,1740.6v-47.4l9.4-15.6
	c10.5-17.5,45.3-74.9,51.3-84.5c7.9-12.9,29.8-50,29.8-50.6c0-0.4-8.4-0.5-18.7-0.2l-18.7,0.4l-14.9,26.1
	c-8.2,14.4-17.8,30.8-21.3,36.5c-3.5,5.7-12.6,21.3-20.2,34.6c-7.6,13.3-14.1,24.2-14.5,24.2c-0.4,0-4.5-6.5-9.1-14.5
	c-4.6-8-13.3-22.9-19.4-33.1c-6.1-10.3-18.4-31.1-27.4-46.2l-16.3-27.6l-18-0.4c-12.1-0.3-18,0.1-18,1.2c0,3.8,15.5,30,53,89.5
	c4.9,7.8,15.5,24.9,23.5,38l14.5,23.9l0.3,26.8c0.2,14.8,0.4,35.7,0.5,46.6l0.1,19.8h17.1h17.1L1999.2,1740.6z M909.8,1496.4
	c4.2-37.9,20.2-70,51.5-102.7c13.6-14.3,34.2-30.7,51.9-41.5c13.2-8,44.2-23,51.7-25c2.9-0.8,25-1.8,49.1-2.2
	c24.1-0.4,50.7-1.4,59.3-2.3s29-2.6,45.5-4l29.9-2.5l16,4c8.8,2.2,20.4,5.1,25.7,6.4c24.7,6,68.7,20.3,98.3,31.8
	c31.8,12.4,39.6,15.6,39.6,16.5c0,0.4-6,3.3-13.3,6.5c-38,16.4-96,56.6-139,96.3c-18.3,16.9-20.3,19.4-18.8,23.3
	c1.5,4.1,5.7,2.3,13.2-5.4c18.6-19.2,61.2-54.2,83.7-68.7c4.5-2.9,13.2-8.5,19.3-12.5c6.1-4,22.1-12.9,35.6-19.8
	c13.5-6.9,25.1-13.1,25.9-13.9c2.5-2.3,6.9-1.4,14.7,3c4.2,2.4,14.2,7.8,22.4,12.1c44.2,23.3,104.6,67.7,131.6,96.9
	c10.2,10.9,14.7,12.9,15.6,6.8c0.8-5.4-30.5-35.5-60.6-58.4c-28.5-21.7-70.4-48.2-93.7-59.3c-6.3-3-11.8-6-12.1-6.5
	c-0.7-1.1,36.4-16.4,63-26.1c19.7-7.2,63-19.7,80.7-23.3c8.2-1.7,18.6-4.1,23.3-5.4l8.5-2.4l29.3,7c63.2,15.2,111.7,32.5,159.1,56.9
	c38.8,20,50.5,27.6,96.2,63.4c7.6,5.9,46.2,43.9,52.7,51.7c4.4,5.4,8.8,5.8,9.5,1c1-6.9-39.6-47-77.3-76.5
	c-37.4-29.2-88.5-56.9-143.8-78c-16.7-6.4-28.3-10-76.5-23.7c-5.3-1.5-13.2-3.6-17.5-4.5c-4.3-1-7.3-2.3-6.7-2.9
	c0.7-0.6,6.6-2.3,13.1-3.7c91.7-19.8,176.4-59.8,241.1-113.6c15.7-13,62.2-59.2,65-64.4c1.1-2,1-3.6-0.4-5.5
	c-2.6-3.5-6.6-2-11.4,4.4c-11.7,15.6-45.9,48.3-71.6,68.4c-25.5,20-75.7,50.2-102.5,61.7c-35.5,15.2-48,19.8-74.1,27.3
	c-41.6,12-73.2,19.2-83.8,19.3c-8.7,0-41.3-8.4-105.2-27.1c-15-4.4-53.3-17.6-66.4-22.9l-6.4-2.6l15.3-8.2
	c51.9-27.7,81.3-48.1,126.6-87.9c5-4.4,13.2-12.7,18.4-18.6c7.4-8.4,9.1-11.1,7.9-13c-0.8-1.3-2.2-2.6-3-2.9
	c-0.9-0.3-8.8,6.7-17.7,15.6c-37.5,37.6-90.6,75.4-142.8,101.7l-15.4,7.8l-15.7-7c-51.6-23-107.5-61-145.3-98.9
	c-20.9-20.9-22.5-21.2-25.3-3.9c-7,43.7-44.9,99.2-86.9,127.4c-6.5,4.3-13.2,9.2-14.9,10.7c-3.1,2.8-3.3,2.7-19.3-3.1
	c-29.1-10.6-42.6-16.1-62.9-25.8c-56.1-26.9-107.9-63.4-149.6-105.4c-15.6-15.8-17.1-16.8-18.9-14.3c-1.1,1.5-2,3.5-2,4.4
	c0,4.1,43.4,44.3,73.6,68c37.7,29.7,104,64.9,148.5,79c8.4,2.6,15.2,5.3,15.2,5.9c0,1.5-31.6,16.3-49.7,23.3l-14.8,5.8l-36.3,0.5
	c-66,0.9-123.8-3.9-175-14.6c-55.7-11.6-109.5-29.7-151.7-51c-56.3-28.3-110.5-69.8-151.3-115.7c-4.7-5.3-6.1-6.1-8.5-4.8
	c-1.6,0.8-2.8,2.1-2.8,2.7c0,4.8,28.1,34.2,54.9,57.5c38.8,33.8,94.3,67.6,143.1,87c37.1,14.8,88.3,29.1,134.8,37.6
	c8.9,1.6,16.5,3.2,16.8,3.6c0.9,0.9-3.9,2-13.7,3.1c-19.6,2.1-72.4,14-97.1,21.9c-29.3,9.4-67.3,25.5-93.4,39.6
	c-14.2,7.7-54.4,34.7-68,45.8c-21,17.1-54.1,49.7-67.1,66.1c-5.1,6.5-5.9,8.3-4.4,10.1c1,1.2,2.6,2.2,3.6,2.2s7.3-6.3,13.9-14.1
	c12.3-14.3,40.2-41.4,55-53.4c71.4-57.9,156.3-93.8,258.6-109.3c29.3-4.4,48-5.6,81-5c18.3,0.3,44.6,0.6,58.3,0.5
	c23.1,0,24.6,0.1,20,2.2c-37.6,16.7-63.5,34.5-89.6,61.5c-15.9,16.4-26.4,31.3-36.1,51.2c-9.2,18.8-13.6,32.6-16.3,51.9
	c-1.9,12.8-0.7,16.5,5.1,15.7C908.3,1506.9,908.8,1505.4,909.8,1496.4L909.8,1496.4z M1429.9,1365c-37.8-17.4-98.7-38.1-146-49.7
	c-5.7-1.4-10.5-3.2-10.8-4c-0.3-0.8,4.7-2.3,11-3.3c40.5-6.6,102.7-26.1,144.3-45.1l9.7-4.5l22.1,8.9c12.2,4.9,31.8,11.9,43.6,15.6
	c46.2,14.4,56.1,17.3,68.9,20.4c7.3,1.7,18.7,4.6,25.2,6.4l11.9,3.2l-13.3,3.2c-50.3,12.2-89.4,25.2-143.1,47.5
	c-6.9,2.9-13.3,5.2-14.1,5.2C1438.7,1368.8,1434.3,1367,1429.9,1365L1429.9,1365z M1096.2,1314.9c0-0.4,3.8-2.3,8.5-4.2
	c13-5.1,33.1-14.9,38.6-18.6l4.9-3.3l21.1,6.2c11.6,3.4,27.6,7.8,35.5,9.8s13.9,4,13.3,4.6C1215.3,1312,1096.2,1317.4,1096.2,1314.9
	L1096.2,1314.9z M1229.7,1301.8c-6.9-1.5-20.6-5.2-30.4-8.1s-22.4-6.7-28-8.4c-5.6-1.7-9.9-3.3-9.6-3.5s7.2-5.5,15.4-11.6
	c16.9-12.7,40.1-36.3,51.2-52.2c14.7-21.1,28.5-50.2,32.7-69.1c1-4.4,2.1-8.1,2.4-8.1c0.3,0,4,3.7,8.2,8.3
	c13.7,15.1,47.1,41.9,76,60.9c16.4,10.8,39,23.6,61.2,34.6c18,8.9,18.7,10.1,8.2,13.8c-3.1,1.1-14.7,5.5-25.7,9.9
	c-29.2,11.5-48,16.8-106,30.5c-10.5,2.5-38.4,6.4-42.3,5.9C1242.6,1304.6,1236.6,1303.3,1229.7,1301.8L1229.7,1301.8z M930.3,1092.3
	c14.2-2.6,22.7-6.3,34.1-15.1c14.7-11.4,22.6-24.3,27.9-45.4c3.1-12.3,3.1-15.3,2.8-99.9l-0.4-87.2l-16.7-0.4l-16.7-0.4l0,85.4
	c0,92.9-0.5,99-8.2,112.2c-4.8,8.3-10,12.7-20.9,18.1c-7.3,3.6-10.6,4.2-24.9,4.8c-33.8,1.3-54.9-9.8-62.7-33
	c-2.3-6.9-2.7-17.2-3.4-97.3l-0.8-89.5l-16.5-0.4l-16.5-0.4l-1,6.4c-0.6,3.5-0.6,43.4-0.1,88.6c0.9,79.5,1,82.6,4.4,95.8
	c7.9,31.3,30.5,51.4,64.6,57.6C889.8,1094.8,916.1,1094.9,930.3,1092.3L930.3,1092.3z M492.8,1034.8v-55.2l64.9-0.4l64.9-0.4
	l0.4-13.3c0.3-9.6-0.1-13.6-1.5-14.6c-1.1-0.7-30.3-1.1-64.9-0.9l-63,0.4l-0.4-37.7l-0.4-37.7l54.5-0.1c30,0,63.2-0.2,73.8-0.4
	l19.3-0.3l0.4-14.5l0.4-14.5h-91.2h-91.2v122.3V1090h17.1h17.1V1034.8z M1358.4,1074.7l-0.4-13.8l-77.7-0.7
	c-49.9-0.5-77.9-1.3-78.2-2.2c-0.3-0.8,3.3-5.9,7.8-11.2c4.6-5.3,14-16.7,21.1-25.4c7-8.6,18.8-22.8,26.2-31.5
	c7.4-8.7,19-22.8,26-31.3c6.9-8.5,22-26.8,33.4-40.8c11.4-13.9,24.3-30,28.5-35.7l7.8-10.4v-13.8v-13.8h-94.2h-94.2l-0.1,3.4
	c-0.1,1.8-0.2,8.1-0.4,13.8l-0.3,10.4l74.5,0.4c41,0.2,74.5,0.8,74.5,1.3c0,0.5-2.5,3.8-5.6,7.2c-3.1,3.4-11.2,13.2-18.2,21.7
	s-16.2,19.8-20.6,25c-37.1,44.4-81.1,98.7-97.7,120.4l-9.2,12.1v14.4v14.4h98.7h98.7L1358.4,1074.7z M1714.7,1077.7
	c0.2-10.4-0.3-19.6-1-20.4c-0.3-0.3-35.2-0.5-77.6-0.3c-48,0.2-77.3-0.2-77.8-1.1c-0.5-0.8,2.6-5.4,6.9-10.3
	c11.6-13.2,45.7-54.6,54.5-66.1c8.2-10.7,36.2-44.8,55.9-68c35.4-41.8,35.8-42.4,34.8-61.1l-0.5-9.6H1615h-94.8l0.4,13.8l0.4,13.8
	l74.5,0.4l74.5,0.4l-14.9,18.3c-8.2,10-25.7,31.7-38.8,48.1c-13.1,16.4-26.6,32.9-29.9,36.6c-3.3,3.8-14.2,17.2-24.2,29.8
	c-10,12.7-24.2,30.4-31.5,39.4l-13.3,16.4l0,13.8l0,13.8h98.6h98.6L1714.7,1077.7z M1996.3,1037.7c0-39.7,0.3-47,2.4-51.1
	c2.6-5.2,20.5-34.5,48.5-79.3c9.7-15.6,18.8-30.2,20.1-32.6c1.3-2.3,6.3-10.3,11.1-17.8c4.8-7.4,9-14.4,9.4-15.6
	c0.6-1.7-2.6-2-18.2-1.6l-18.9,0.4l-29.8,50.2c-16.4,27.6-32.3,54.6-35.4,60s-6.2,9.9-7,9.9c-0.8,0-3-3.2-5-7.1
	c-3.9-7.7-38.6-66.5-56.2-95.1l-11-17.9l-18.7-0.4c-10.3-0.2-18.7-0.1-18.7,0.3c0,0.7,15.2,26.6,21.5,36.7
	c1.8,2.9,7.8,12.6,13.4,21.6c5.6,9,14.9,24.1,20.7,33.6c5.9,9.4,16.5,26.9,23.6,38.9l12.9,21.8l-0.1,44.7
	c-0.1,24.6,0.3,45.2,0.9,45.7c0.6,0.6,8.6,1,17.8,1h16.8V1037.7z"/>
</svg>
